<?xml version="1.0" encoding="utf-8"?>
<!-- Generator: Adobe Illustrator 19.2.0, SVG Export Plug-In . SVG Version: 6.00 Build 0)  -->
<svg version="1.1" id="Layer_1" xmlns="http://www.w3.org/2000/svg" xmlns:xlink="http://www.w3.org/1999/xlink" x="0px" y="0px"
	 viewBox="0 0 667 263.9" style="enable-background:new 0 0 667 263.9;" xml:space="preserve">
<style type="text/css">
	.st0{fill:none;stroke:#51B848;stroke-width:4;}
	.st1{fill:#51B848;}
</style>
<g>
	<path class="st0" d="M107.4,78.5c-1.2,1.1-2.7,2-4.6,2.7c-1.8,0.6-3.8,1.1-5.8,1.3c-2.1,0.2-3.9,0.3-5.6,0.3
		c-3.4,0-6.7,0.2-9.8,0.6c-3.1,0.4-5.8,1.4-8.1,3c-2.3,1.6-4.1,3.8-5.4,6.8s-2,7-2,12.1v92.5c0,2.3-0.1,4.5-0.4,6.8
		s-0.8,4.3-1.6,6.2c-0.8,1.8-1.8,3.3-3.2,4.5c-1.4,1.1-3,1.7-5,1.7c-2.1,0-3.9-0.6-5.2-1.9c-1.4-1.3-2.4-2.9-3.2-4.8
		c-0.8-1.9-1.4-4-1.7-6.3c-0.4-2.3-0.5-4.3-0.5-6.2v-92.5c0-5.1-0.9-9.2-2.7-12.2s-3.9-5.3-6.5-6.9s-5.3-2.6-8.3-3s-5.6-0.6-7.9-0.6
		c-5.5,0-9.9-0.7-13.1-2.2C3.6,78.8,2,76.6,2,73.8c0-1.4,0.4-2.6,1.1-3.6s2-1.8,3.8-2.3c1.8-0.6,4.4-1,7.8-1.3
		c3.3-0.3,7.6-0.5,12.8-0.5h55.1c9.1,0,15.8,0.5,20.1,1.6c4.3,1.1,6.5,3.1,6.5,6.1C109.2,75.8,108.6,77.3,107.4,78.5"/>
	<path class="st0" d="M159.6,117.9c1.6,1.2,2.3,2.7,2.3,4.4c0,3.4-1.3,5.6-3.9,6.7c-2.6,1.1-5.7,2-9.2,2.7c-4.5,1-8.2,2.2-10.9,3.6
		c-2.8,1.4-5.6,3.5-8.4,6.4c-2.4,2.3-4.6,5.7-6.7,10.3s-3.1,11.5-3.1,20.7v26.2c0,2.3-0.2,4.5-0.5,6.7c-0.4,2.2-0.9,4.1-1.7,5.8
		c-0.8,1.7-1.7,3-2.9,4c-1.1,1-2.5,1.5-4,1.5c-1.7,0-3.2-0.5-4.4-1.5c-1.2-1-2.2-2.3-3-3.8c-0.8-1.6-1.3-3.3-1.7-5.1
		c-0.4-1.8-0.5-3.7-0.5-5.5v-63.6c0-1.8,0.1-3.9,0.3-6.1c0.2-2.2,0.7-4.2,1.6-6.1c0.9-1.8,2.1-3.4,3.8-4.6c1.7-1.2,4-1.8,7-1.8
		c3.3,0,6,0.4,8.3,1.3s5,1.3,8.3,1.3c2.8,0,5.2-0.3,7-0.9s3.5-1.2,5-1.8c1.5-0.6,3-1.2,4.5-1.8c1.5-0.6,3.4-0.8,5.6-0.8
		C155.6,116.1,158,116.7,159.6,117.9"/>
	<path class="st0" d="M195.1,200.3c0,1.6-0.1,3.3-0.4,5.2c-0.3,1.9-0.8,3.7-1.5,5.4s-1.7,3.1-2.9,4.3c-1.2,1.1-2.7,1.7-4.6,1.7
		c-1.8,0-3.3-0.6-4.5-1.8c-1.1-1.2-2-2.7-2.7-4.4c-0.6-1.7-1.1-3.5-1.3-5.4s-0.3-3.6-0.3-5v-65.5c0-1.7,0.1-3.6,0.3-5.8
		c0.2-2.2,0.6-4.3,1.3-6.3c0.6-2,1.5-3.6,2.7-5c1.1-1.3,2.6-2,4.5-2c2,0,3.6,0.7,4.8,2s2.2,3,2.9,5s1.2,4.1,1.4,6.3
		c0.2,2.2,0.3,4.1,0.3,5.8V200.3z M179.5,82.3c-1.3-1.6-1.9-3.3-1.9-5.3s0.7-3.8,2-5.4s3.4-2.4,6.1-2.4c2.7,0,4.7,0.8,6.2,2.4
		c1.4,1.6,2.1,3.4,2.1,5.4s-0.8,3.8-2.3,5.3c-1.6,1.6-3.5,2.3-6,2.3C182.9,84.6,180.8,83.9,179.5,82.3"/>
	<path class="st0" d="M242.1,197.8c0,5.8-0.7,10.6-2,14.2c-1.3,3.7-3.7,5.5-6.9,5.5c-3.7,0-6.2-1.8-7.4-5.3
		c-1.3-3.5-1.9-8.4-1.9-14.5v-112c0-7.2,0.6-12.7,1.9-16.3c1.3-3.6,3.8-5.4,7.4-5.4c3.1,0,5.4,1.8,6.8,5.5c1.4,3.7,2.1,9.1,2.1,16.2
		L242.1,197.8L242.1,197.8z"/>
	<path class="st0" d="M354.4,167.1c-3,2.6-7.4,3.8-13.1,3.8c-2,0-4-0.1-6-0.4c-2-0.3-4.2-0.6-6.6-0.9c-2.4-0.3-5.2-0.6-8.3-0.9
		c-3.1-0.3-6.7-0.4-10.8-0.4c-2.7,0-5.5,0.2-8.5,0.7s-5.7,1.4-8.3,2.7c-2.6,1.3-4.6,3-6.3,5.2c-1.6,2.2-2.4,5-2.4,8.4s0.9,6.4,2.7,9
		c1.8,2.6,4,4.8,6.7,6.5s5.6,3,8.8,3.9c3.2,0.9,6.2,1.4,9,1.4s5.4-0.4,7.8-1.1c2.3-0.7,4.6-1.5,6.7-2.2c2.1-0.8,4.1-1.5,6.1-2.2
		c1.9-0.7,3.9-1.1,6.1-1.1c2,0,3.3,0.5,4,1.5s1.1,2.5,1.1,4.5c0,0.8-0.6,2-1.7,3.4s-2.9,2.8-5.3,4c-2.4,1.3-5.6,2.4-9.5,3.3
		c-3.9,0.9-8.6,1.4-14.1,1.4c-6.8,0-13.4-1.3-19.8-3.8c-6.4-2.6-12.1-6-17-10.4c-5-4.4-8.9-9.6-11.9-15.5c-3-6-4.5-12.3-4.5-19.1
		c0-8.6,1.3-16.3,4-23s6.6-12.3,11.6-16.9c5-4.6,11-8.1,18-10.4c6.9-2.3,14.7-3.5,23.2-3.5c5.7,0,11.1,1,16.3,3.1
		c5.2,2.1,9.7,4.9,13.7,8.6c4,3.7,7.1,8.1,9.5,13.3c2.3,5.2,3.5,10.9,3.5,17.1C359,161.3,357.5,164.6,354.4,167.1 M286.5,153.3
		c1.8,2.3,4.1,4,6.8,5.3c2.7,1.3,5.6,2.2,8.7,2.7s6,0.7,8.7,0.7c3.4,0,6.7-0.3,9.8-1c3.1-0.6,5.8-1.6,8.2-3c2.3-1.3,4.2-3.1,5.5-5.2
		c1.3-2.1,2-4.7,2-7.7c0-3.5-0.8-6.7-2.6-9.4c-1.7-2.7-3.9-5-6.5-6.9c-2.6-1.9-5.6-3.4-8.9-4.4s-6.7-1.5-10.1-1.5
		c-3.3,0-6.4,0.6-9.4,1.8c-3,1.2-5.6,2.8-7.8,4.8c-2.2,2-4,4.3-5.3,6.9c-1.3,2.6-2,5.4-2,8.2C283.7,148.2,284.6,151.1,286.5,153.3"
		/>
	<path class="st0" d="M382.9,120.8c1.5,2.8,2.2,6.8,2.2,11.9v20.6c0,8.8,0.5,16.4,1.4,22.9s2.6,11.9,4.9,16.3
		c2.3,4.4,5.5,7.7,9.6,9.8c4,2.1,9.2,3.2,15.6,3.2c4.4,0,8.2-1.2,11.4-3.6c3.2-2.4,5.8-5.5,7.9-9.2c2.1-3.8,3.6-7.9,4.6-12.4
		s1.5-9,1.5-13.4v-31.5c0-1.8,0.1-3.9,0.4-6.1c0.3-2.2,0.8-4.3,1.5-6.2c0.7-1.9,1.7-3.5,2.9-4.7c1.2-1.2,2.8-1.8,4.8-1.8
		c2.1,0,3.8,0.6,5,1.7s2.1,2.7,2.8,4.7c0.6,2,1.1,4.3,1.3,7c0.2,2.7,0.3,5.5,0.3,8.5v55.1c0,7.2-0.7,12.8-2.1,16.8s-4.1,6-8.1,6
		c-2.3,0-4.1-0.1-5.5-0.4c-1.4-0.3-2.7-0.6-3.9-0.8c-1.2-0.3-2.5-0.6-3.9-0.9c-1.4-0.3-3.3-0.4-5.5-0.4c-2.8,0-5.2,0.4-7,1.2
		s-3.7,1.6-5.6,2.6c-1.9,0.9-4.2,1.8-6.8,2.6c-2.6,0.8-6.1,1.2-10.3,1.2c-10.6,0-19-3.4-25.2-10.3c-6.2-6.9-9.2-17.4-9.2-31.6v-48.3
		c0-5,0.9-8.6,2.6-11c1.7-2.3,3.8-3.5,6.2-3.5C379.2,116.5,381.4,118,382.9,120.8"/>
	<path class="st0" d="M548.9,130.5c-1.3,1.2-3.5,1.8-6.6,1.8c-2.4,0-4.9-0.3-7.4-0.8c-2.6-0.6-5.6-0.9-9.1-0.9
		c-4.7,0-9.1,0.9-13.4,2.7c-4.3,1.8-7.9,4.3-11.1,7.7c-3.1,3.3-5.6,7.3-7.4,11.9c-1.8,4.6-2.8,9.7-2.8,15.2c0,5.1,1,9.8,3,14.1
		s4.6,8.1,7.9,11.4c3.3,3.3,7.1,5.8,11.4,7.7c4.3,1.8,8.8,2.8,13.3,2.8c1.6,0,3.7-0.2,6.4-0.7s5.3-0.7,7.9-0.7
		c2.4,0,4.5,0.4,6.2,1.2s2.6,2.4,2.6,4.8c0,2.3-0.9,4.1-2.7,5.6s-3.9,2.7-6.5,3.5c-2.6,0.9-5.2,1.5-8,1.8c-2.8,0.4-5.2,0.5-7.3,0.5
		c-4.7,0-9-0.5-13-1.5s-7.5-2.2-10.5-3.7c-3.1-1.5-5.7-3-7.9-4.6c-2.2-1.6-3.8-2.9-4.8-4c-0.7-0.7-2-2-3.8-3.9s-3.7-4.5-5.6-7.7
		s-3.6-7.1-5.1-11.6s-2.2-9.7-2.2-15.5c0-8.9,1.6-16.7,4.8-23.4c3.2-6.7,7.4-12.2,12.5-16.6c5.2-4.4,11-7.7,17.5-9.9
		c6.5-2.2,13-3.3,19.6-3.3c1.4,0,3.5,0.2,6.3,0.6s5.5,1.1,8.1,1.9c2.6,0.9,4.9,2,6.9,3.4s3,3.2,3,5.3
		C550.8,127.6,550.1,129.3,548.9,130.5"/>
	<path class="st0" d="M661.1,186.6c-2.6,6.3-6.2,11.9-10.9,16.8c-4.8,4.9-10.5,8.8-17.2,11.7s-14.3,4.4-22.6,4.4
		c-7.2,0-14.1-1.2-20.7-3.6c-6.6-2.4-12.4-5.9-17.3-10.4c-5-4.5-8.9-10.1-11.8-16.6c-2.9-6.5-4.4-13.8-4.4-21.9
		c0-8.4,1.5-15.8,4.6-22.4c3-6.6,7.1-12.2,12.1-16.7c5-4.5,10.8-8,17.3-10.4s13.2-3.6,20.2-3.6c7.1,0,13.9,1.2,20.5,3.5
		s12.4,5.8,17.4,10.3c5,4.5,9.1,10.1,12.1,16.7c3,6.6,4.6,14.1,4.6,22.6C665,173.7,663.7,180.3,661.1,186.6"/>
	<path class="st0" d="M640.9,88.9c-1.5,3.8-3.7,7.1-6.6,10.1c-2.9,2.9-6.3,5.3-10.3,7s-8.6,2.6-13.6,2.6c-4.3,0-8.5-0.7-12.4-2.2
		c-4-1.4-7.4-3.5-10.4-6.3c-3-2.7-5.3-6-7.1-10c-1.7-3.9-2.6-8.3-2.6-13.1c0-5,0.9-9.5,2.7-13.5s4.2-7.3,7.3-10
		c3-2.7,6.5-4.8,10.4-6.3c3.9-1.4,8-2.2,12.1-2.2c4.3,0,8.4,0.7,12.3,2.1c4,1.4,7.4,3.5,10.5,6.2c3,2.7,5.4,6.1,7.3,10
		c1.8,4,2.7,8.5,2.7,13.6C643.2,81.2,642.4,85.2,640.9,88.9"/>
	<path class="st0" d="M628.8,28.3c-0.9,2.3-2.2,4.3-3.9,6c-1.7,1.8-3.8,3.2-6.2,4.2s-5.1,1.6-8.2,1.6c-2.6,0-5.1-0.4-7.5-1.3
		c-2.4-0.9-4.5-2.1-6.2-3.7c-1.8-1.6-3.2-3.6-4.2-6c-1-2.3-1.6-5-1.6-7.9c0-3,0.5-5.7,1.6-8.1s2.6-4.4,4.4-6
		c1.8-1.6,3.9-2.9,6.2-3.8S608,2,610.5,2s5,0.4,7.4,1.3c2.4,0.8,4.5,2.1,6.3,3.7s3.3,3.6,4.4,6c1.1,2.4,1.6,5.1,1.6,8.2
		C630.1,23.7,629.7,26,628.8,28.3"/>
	<g>
		<path class="st1" d="M439.9,230.4c-0.4,0.4-0.8,0.6-1.4,0.6c-0.8,0-1.3-0.1-1.6-0.2c-0.3-0.1-0.6-0.2-0.9-0.3s-0.7-0.2-1.1-0.3
			c-0.5-0.1-1.3-0.2-2.4-0.2c-0.9,0-1.8,0.1-2.6,0.4s-1.5,0.6-2.1,1.1s-1.1,1.1-1.4,1.8s-0.5,1.5-0.5,2.5c0,1.1,0.2,2,0.7,2.7
			s1.1,1.3,1.9,1.9c0.8,0.5,1.7,1,2.8,1.4c1,0.4,2.1,0.8,3.1,1.2c1.1,0.4,2.1,0.9,3.2,1.4c1,0.5,2,1.1,2.8,1.9
			c0.8,0.8,1.4,1.7,1.9,2.8s0.8,2.4,0.8,4c0,1.7-0.3,3.2-1,4.6c-0.7,1.3-1.6,2.5-2.7,3.4c-1.2,0.9-2.5,1.6-4.1,2.1s-3.2,0.7-5,0.7
			c-1,0-2-0.1-3-0.3c-1-0.2-2-0.4-2.9-0.8c-0.9-0.3-1.6-0.7-2.1-1.2c-0.6-0.5-0.8-1.1-0.8-1.7c0-0.7,0.2-1.2,0.7-1.5
			s0.9-0.4,1.2-0.4c0.6,0,1.1,0.1,1.6,0.3c0.5,0.2,0.9,0.4,1.4,0.6s1.1,0.4,1.7,0.6s1.4,0.3,2.4,0.3c2.1,0,3.8-0.6,5.2-1.7
			c1.3-1.1,2-2.5,2-4.2c0-1.6-0.4-2.8-1.3-3.8c-0.8-0.9-1.9-1.7-3.2-2.3c-1.3-0.6-2.7-1.2-4.1-1.7c-1.5-0.5-2.8-1.1-4.1-1.9
			c-1.3-0.8-2.3-1.7-3.2-2.9c-0.8-1.2-1.3-2.8-1.3-4.8c0-2.1,0.5-3.8,1.4-5.2c0.9-1.3,2-2.4,3.4-3.2c1.3-0.8,2.7-1.3,4.1-1.6
			s2.7-0.5,3.7-0.5s2,0.1,2.9,0.2c0.9,0.1,1.7,0.3,2.4,0.6c0.7,0.3,1.2,0.6,1.6,1s0.6,0.9,0.6,1.4
			C440.5,229.6,440.3,230.1,439.9,230.4z"/>
		<path class="st1" d="M469.9,255.7c-0.6,1.5-1.5,2.8-2.6,4s-2.5,2.1-4.1,2.8c-1.6,0.7-3.4,1-5.4,1c-1.7,0-3.4-0.3-4.9-0.9
			c-1.6-0.6-2.9-1.4-4.1-2.5s-2.1-2.4-2.8-3.9c-0.7-1.5-1-3.3-1-5.2c0-2,0.4-3.8,1.1-5.3c0.7-1.6,1.7-2.9,2.9-4
			c1.2-1.1,2.6-1.9,4.1-2.5c1.6-0.6,3.2-0.9,4.8-0.9c1.7,0,3.3,0.3,4.9,0.8c1.6,0.6,2.9,1.4,4.1,2.5s2.2,2.4,2.9,4
			c0.7,1.6,1.1,3.4,1.1,5.4C470.8,252.7,470.5,254.2,469.9,255.7z M450,254.2c0.4,1,0.9,1.9,1.7,2.8c0.7,0.8,1.6,1.5,2.6,2
			s2.2,0.8,3.5,0.8c1.1,0,2.1-0.2,3.1-0.6s1.9-1,2.7-1.8c0.8-0.8,1.4-1.7,1.9-2.7s0.7-2.2,0.7-3.5s-0.2-2.5-0.7-3.6s-1.1-2-1.8-2.8
			c-0.8-0.8-1.6-1.4-2.7-1.8c-1-0.4-2.1-0.6-3.2-0.6c-1.2,0-2.3,0.2-3.3,0.7s-1.9,1.1-2.7,1.9c-0.7,0.8-1.3,1.7-1.7,2.8
			c-0.4,1.1-0.6,2.2-0.6,3.4C449.4,252.1,449.6,253.1,450,254.2z"/>
		<path class="st1" d="M479.2,258.4c0,1.4-0.2,2.5-0.5,3.4s-0.9,1.3-1.6,1.3c-0.9,0-1.5-0.4-1.8-1.3c-0.3-0.8-0.5-2-0.5-3.4v-26.6
			c0-1.7,0.2-3,0.5-3.9s0.9-1.3,1.8-1.3c0.7,0,1.3,0.4,1.6,1.3c0.3,0.9,0.5,2.2,0.5,3.8V258.4z"/>
		<path class="st1" d="M488,240.1c0.4,0.7,0.5,1.6,0.5,2.8v4.9c0,2.1,0.1,3.9,0.3,5.4c0.2,1.5,0.6,2.8,1.2,3.9
			c0.6,1,1.3,1.8,2.3,2.3s2.2,0.8,3.7,0.8c1,0,1.9-0.3,2.7-0.9c0.8-0.6,1.4-1.3,1.9-2.2c0.5-0.9,0.9-1.9,1.1-3s0.4-2.1,0.4-3.2v-7.5
			c0-0.4,0-0.9,0.1-1.4s0.2-1,0.4-1.5c0.2-0.5,0.4-0.8,0.7-1.1c0.3-0.3,0.7-0.4,1.1-0.4c0.5,0,0.9,0.1,1.2,0.4
			c0.3,0.3,0.5,0.6,0.7,1.1s0.3,1,0.3,1.7c0,0.6,0.1,1.3,0.1,2v13.1c0,1.7-0.2,3-0.5,4c-0.3,0.9-1,1.4-1.9,1.4c-0.5,0-1,0-1.3-0.1
			s-0.6-0.1-0.9-0.2s-0.6-0.1-0.9-0.2s-0.8-0.1-1.3-0.1c-0.7,0-1.2,0.1-1.7,0.3c-0.4,0.2-0.9,0.4-1.3,0.6c-0.5,0.2-1,0.4-1.6,0.6
			s-1.4,0.3-2.5,0.3c-2.5,0-4.5-0.8-6-2.5c-1.5-1.6-2.2-4.1-2.2-7.5v-11.5c0-1.2,0.2-2,0.6-2.6s0.9-0.8,1.5-0.8
			C487.2,239.1,487.7,239.4,488,240.1z"/>
		<path class="st1" d="M520.4,238.3c0.5,0.3,0.9,0.5,1.2,0.7s0.6,0.4,0.8,0.6c0.2,0.2,0.3,0.5,0.3,0.9c0,0.5-0.3,0.9-0.9,1.2
			c-0.6,0.3-1.2,0.7-1.9,1.1c-0.7,0.4-1.3,1-1.9,1.7c-0.6,0.7-0.9,1.7-0.9,3v6.6c0,0.9,0.2,1.8,0.5,2.5c0.3,0.8,0.9,1.6,1.6,2.3
			c0.3,0.3,0.6,0.6,1,0.8c0.4,0.2,0.7,0.4,1.1,0.6c0.3,0.2,0.6,0.4,0.8,0.7c0.2,0.2,0.3,0.5,0.3,0.9c0,0.6-0.3,1-0.9,1.3
			c-0.6,0.2-1.3,0.4-2,0.4c-1.4,0-2.6-0.3-3.5-0.8s-1.6-1.2-2.1-2.1s-0.9-1.9-1.1-3c-0.2-1.1-0.3-2.3-0.3-3.5v-6.5
			c0-1.1-0.2-2.1-0.6-2.8c-0.4-0.7-0.9-1.3-1.4-1.8s-1-0.9-1.4-1.3c-0.4-0.4-0.6-0.8-0.6-1.3c0-0.6,0.3-1.2,0.9-1.8s1.2-1.1,1.7-1.6
			c0.4-0.4,0.7-0.9,0.9-1.5s0.4-1.1,0.6-1.6s0.4-0.9,0.7-1.3c0.3-0.4,0.7-0.5,1.3-0.5s1,0.2,1.3,0.5s0.6,0.8,0.8,1.3s0.4,1,0.7,1.6
			c0.2,0.6,0.6,1.1,1,1.5C519.4,237.6,519.9,238,520.4,238.3z"/>
		<path class="st1" d="M531.8,259c0,0.4,0,0.8-0.1,1.2c-0.1,0.5-0.2,0.9-0.4,1.3s-0.4,0.7-0.7,1s-0.6,0.4-1.1,0.4
			c-0.4,0-0.8-0.1-1.1-0.4s-0.5-0.6-0.6-1c-0.2-0.4-0.3-0.8-0.3-1.3c-0.1-0.5-0.1-0.9-0.1-1.2v-15.6c0-0.4,0-0.9,0.1-1.4
			s0.2-1,0.3-1.5c0.2-0.5,0.4-0.9,0.6-1.2c0.3-0.3,0.6-0.5,1.1-0.5s0.8,0.2,1.1,0.5s0.5,0.7,0.7,1.2s0.3,1,0.3,1.5s0.1,1,0.1,1.4
			V259H531.8z M528.1,230.9c-0.3-0.4-0.5-0.8-0.5-1.3s0.2-0.9,0.5-1.3c0.3-0.4,0.8-0.6,1.4-0.6c0.6,0,1.1,0.2,1.5,0.6
			c0.3,0.4,0.5,0.8,0.5,1.3s-0.2,0.9-0.6,1.3c-0.4,0.4-0.8,0.6-1.4,0.6C528.9,231.5,528.4,231.3,528.1,230.9z"/>
		<path class="st1" d="M560.4,255.7c-0.6,1.5-1.5,2.8-2.6,4s-2.5,2.1-4.1,2.8c-1.6,0.7-3.4,1-5.4,1c-1.7,0-3.4-0.3-4.9-0.9
			s-2.9-1.4-4.1-2.5c-1.2-1.1-2.1-2.4-2.8-3.9s-1-3.3-1-5.2c0-2,0.4-3.8,1.1-5.3c0.7-1.6,1.7-2.9,2.9-4s2.6-1.9,4.1-2.5
			s3.2-0.9,4.8-0.9c1.7,0,3.3,0.3,4.9,0.8c1.6,0.6,2.9,1.4,4.1,2.5c1.2,1.1,2.2,2.4,2.9,4s1.1,3.4,1.1,5.4
			C561.3,252.7,561,254.2,560.4,255.7z M540.6,254.2c0.4,1,0.9,1.9,1.7,2.8c0.8,0.9,1.6,1.5,2.6,2s2.2,0.8,3.5,0.8
			c1.1,0,2.1-0.2,3.1-0.6s1.9-1,2.7-1.8c0.8-0.8,1.4-1.7,1.9-2.7s0.7-2.2,0.7-3.5s-0.2-2.5-0.7-3.6s-1.1-2-1.8-2.8
			c-0.8-0.8-1.6-1.4-2.7-1.8c-1-0.4-2.1-0.6-3.2-0.6c-1.2,0-2.3,0.2-3.3,0.7s-1.9,1.1-2.7,1.9c-0.7,0.8-1.3,1.7-1.7,2.8
			s-0.6,2.2-0.6,3.4C540,252.1,540.2,253.1,540.6,254.2z"/>
		<path class="st1" d="M587.6,258c0,0.6,0,1.2-0.1,1.7c-0.1,0.6-0.2,1.1-0.3,1.6c-0.2,0.5-0.4,0.9-0.7,1.2c-0.3,0.3-0.7,0.5-1.1,0.5
			c-1.4,0-2.1-1.2-2.1-3.7v-6.2c0-2.4-0.2-4.3-0.7-5.8c-0.5-1.4-1.1-2.6-1.9-3.3c-0.8-0.8-1.7-1.3-2.8-1.5c-1-0.2-2.1-0.4-3.2-0.4
			c-1,0-2,0.2-2.8,0.7c-0.8,0.4-1.5,1.1-2,1.8c-0.6,0.8-1,1.7-1.3,2.8c-0.3,1-0.5,2.2-0.5,3.4v7.8c0,1.3-0.2,2.4-0.5,3.2
			c-0.4,0.8-1,1.2-1.8,1.2c-0.5,0-1-0.3-1.4-1c-0.4-0.6-0.6-1.5-0.6-2.6v-14.7c0-1.4,0.1-2.6,0.5-3.6s1-1.5,1.8-1.5
			c0.7,0,1.3,0,1.7,0.1s0.7,0.1,0.9,0.2c0.2,0.1,0.5,0.2,0.7,0.2c0.2,0.1,0.6,0.1,1.1,0.1c0.9,0,1.6-0.1,2-0.3
			c0.5-0.2,1-0.4,1.4-0.6c0.5-0.2,1.1-0.4,1.8-0.6c0.7-0.2,1.7-0.3,3-0.3c1.2,0,2.3,0.2,3.4,0.5c1.1,0.3,2,0.9,2.8,1.7
			s1.5,1.9,1.9,3.2c0.5,1.3,0.7,3.1,0.7,5.1L587.6,258L587.6,258z"/>
		<path class="st1" d="M601.2,238.5c0.6,0.1,1.2,0.3,1.7,0.5c0.6,0.2,1,0.4,1.4,0.7s0.6,0.6,0.6,1c0,0.5-0.2,0.8-0.6,0.9
			c-0.4,0.2-0.8,0.2-1.3,0.2c-0.6,0-1.1-0.1-1.5-0.2c-0.5-0.1-1-0.2-1.7-0.2c-0.2,0-0.5,0.1-0.9,0.2c-0.4,0.1-0.8,0.3-1.2,0.5
			s-0.8,0.6-1.1,1s-0.5,0.9-0.5,1.6c0,1.1,0.3,2,0.9,2.6c0.6,0.6,1.4,1.1,2.2,1.5c0.9,0.4,1.9,0.7,2.9,1.1c1.1,0.3,2,0.8,2.9,1.3
			c0.9,0.6,1.6,1.3,2.2,2.2c0.6,0.9,0.9,2.2,0.9,3.8c0,0.8-0.2,1.6-0.6,2.4c-0.4,0.8-1,1.5-1.9,2c-0.8,0.6-1.9,1.1-3.1,1.4
			c-1.2,0.4-2.7,0.5-4.4,0.5c-0.5,0-1.1,0-1.8-0.1s-1.3-0.2-1.9-0.4c-0.6-0.2-1.1-0.4-1.5-0.7c-0.4-0.3-0.6-0.7-0.6-1.1
			c0-0.5,0.2-0.8,0.5-0.9s0.6-0.2,1-0.2c0.6,0,1.3,0.2,2,0.5c0.8,0.3,1.7,0.5,2.7,0.5c0.8,0,1.5-0.1,2-0.4c0.6-0.3,1-0.6,1.4-1
			s0.6-0.8,0.8-1.3s0.3-0.9,0.3-1.2c0-1.1-0.3-2-0.9-2.6c-0.6-0.6-1.4-1.2-2.3-1.6c-0.9-0.4-1.9-0.8-3-1.1s-2.1-0.7-3-1.3
			c-0.9-0.5-1.7-1.2-2.3-2s-0.9-1.9-0.9-3.4c0-1.2,0.3-2.3,0.9-3.2c0.6-0.9,1.3-1.6,2.2-2.2c0.9-0.6,1.9-1,3-1.2
			c1.1-0.3,2.1-0.4,3.1-0.4C600.1,238.3,600.6,238.4,601.2,238.5z"/>
	</g>
</g>
</svg>
